<svg xmlns="http://www.w3.org/2000/svg" viewBox="0 0 246 238" fill="currentColor" aria-hidden="true"><path fill-rule="evenodd" d="M151.3,178.2C149.3,175.6 146.9,172.8 146.0,171.9C145.2,171.0 142.9,168.3 141.0,165.9C137.0,161.0 132.3,155.4 129.8,152.5C127.4,149.8 118.1,138.7 112.3,131.7C109.6,128.6 105.7,123.8 103.4,121.2C101.2,118.6 98.5,115.3 97.4,113.9C96.4,112.4 92.1,107.3 88.0,102.4C83.9,97.5 79.9,92.8 79.3,92.0C78.6,91.2 75.6,87.7 72.8,84.3C69.9,80.9 65.2,75.4 62.5,72.1C59.8,68.7 55.4,63.6 52.7,60.8C50.1,57.9 48.0,55.2 48.0,54.9C48.0,54.5 46.8,52.9 45.2,51.3C43.7,49.8 40.7,46.2 38.6,43.5C34.5,38.4 28.3,31.2 22.6,25.0C20.8,23.1 18.1,19.6 16.6,17.3C15.1,15.0 13.2,12.9 12.5,12.6C11.7,12.3 9.9,10.2 8.4,7.8C7.0,5.4 4.8,2.7 3.6,1.8C1.6,0.1 7.7,0.0 122.8,0.0L244.0,0.0L244.0,43.3L244.0,86.6L240.0,91.0C237.8,93.5 234.1,97.7 231.8,100.4C227.6,105.1 223.5,109.7 213.1,121.0C210.4,124.0 201.0,134.4 192.4,144.0C183.8,153.6 175.1,163.3 173.1,165.5C171.1,167.7 166.8,172.5 163.6,176.2C160.4,180.0 157.2,183.0 156.4,183.0C155.7,183.0 153.4,180.9 151.3,178.2Z"/></svg>